<svg width="24" height="24" viewBox="0 0 24 24" fill="none" xmlns="http://www.w3.org/2000/svg">
<g clip-path="url(#clip0_6_91)">
<path fill-rule="evenodd" clip-rule="evenodd" d="M24 12C24 18.6274 18.6274 24 12 24C5.37258 24 0 18.6274 0 12C0 5.37258 5.37258 0 12 0C18.6274 0 24 5.37258 24 12ZM10.8 7C10.8 6.44771 11.2477 6 11.8 6H12.2C12.7523 6 13.2 6.44772 13.2 7V10.8H17C17.5523 10.8 18 11.2477 18 11.8V12.2C18 12.7523 17.5523 13.2 17 13.2H13.2V17C13.2 17.5523 12.7523 18 12.2 18H11.8C11.2477 18 10.8 17.5523 10.8 17V13.2H7C6.44771 13.2 6 12.7523 6 12.2V11.8C6 11.2477 6.44772 10.8 7 10.8H10.8V7Z" fill="white"/>
</g>
<defs>
<clipPath id="clip0_6_91">
<rect width="24" height="24" fill="white"/>
</clipPath>
</defs>
</svg>
