<svg width="238" height="35" viewBox="0 0 238 35" fill="none" xmlns="http://www.w3.org/2000/svg">
<path d="M7.56 15.36C8.12 14.92 9.76 14.72 11.76 14.64L11.92 10.36C12 8.8 12.04 7.32 12.04 6.08C9.16 6.2 7.08 6.68 5.64 7.24C3.32 8.16 2.56 9.44 2.56 10.48C1 10.32 0.2 8.72 0.2 7C0.2 5.92 0.52 4.8 1.2 4.04C2.56 2.48 4.48 2 7.28 2C9 2 11.08 2.2 13.6 2.4C16.6 2.64 21.4 3.4 24 3.4C24.28 3.4 24.56 3.4 24.8 3.36C24.92 3.56 25 3.88 25 4.16C25 5.04 24.36 6.12 22.88 6.28C22.32 6.32 21.68 6.36 21.04 6.36C19.72 6.36 18.28 6.28 16.84 6.16C16.88 7.28 16.92 8.84 16.92 10.44C16.92 11.84 16.88 13.32 16.88 14.64H19.6C20.4 14.64 21.08 14.64 21.6 14.6C21.76 14.96 21.88 15.36 21.88 15.76C21.88 16.28 21.72 16.76 21.28 17.2C20.8 17.68 20.04 18 18.84 18.08L16.8 18.2C16.76 20.88 16.76 22.68 16.76 24.28C16.8 29.24 16.88 31.52 17 33.04C16.88 33.08 16.68 33.08 16.44 33.08C15.64 33.08 14.32 32.88 13.24 32.08C12.44 31.48 11.8 30.6 11.64 29.2C11.52 28.16 11.48 26.96 11.48 25.64C11.52 22.2 11.64 19.84 11.64 18.36C9.32 18.44 7.48 18.44 7.48 18.44C7.48 18.44 7.04 17.48 7.04 16.6C7.04 16.12 7.16 15.68 7.56 15.36ZM23.0003 10.32C21.8403 10.04 20.8803 8.76 20.8803 7.24C20.8803 6.48 21.1203 5.64 21.7203 4.88C23.0403 3.16 25.9603 2.2 29.1203 1.88C29.8803 1.8 30.6803 1.76 31.4403 1.76C34.7603 1.76 38.0403 2.48 39.8803 3.76C42.3203 5.48 43.3603 7.4 43.3603 9.28C43.3603 11.4 42.0803 13.48 40.0403 15.44C38.3203 17.12 36.1203 18.48 33.9203 19.36C36.3203 21.84 38.4803 24.48 39.4803 25.44C41.6403 27.6 43.9203 29.2 45.5203 29.2C45.7203 29.2 45.9203 29.16 46.0803 29.12C46.0803 29.12 45.7603 31.12 44.1603 32C43.6803 32.24 43.1203 32.4 42.4003 32.4C41.8803 32.4 41.2403 32.32 40.5203 32.12C39.0003 31.64 37.3203 30 35.7203 28C34.1603 26.04 32.6403 23.72 31.2803 21.72L31.0403 26.92C30.9603 28.8 30.9203 30.32 30.9203 31.76C30.6003 31.8 30.2803 31.84 29.9603 31.84C28.4003 31.84 27.0803 31.08 26.4403 29.56C26.2003 29 26.1203 27.72 26.1203 26.08C26.1203 23.48 26.2803 21.48 26.4403 19.44C25.3603 18.64 24.5203 17.2 24.5203 15.72C24.5203 14.68 24.9603 13.84 26.0803 13.84C26.3603 13.84 26.6403 13.88 26.9603 13.96C27.2003 11.24 27.5203 8.68 27.7203 6.64C26.4403 7.24 25.2803 7.92 24.4403 8.6C23.6403 9.24 23.1203 9.84 23.0003 10.32ZM31.6403 16.92C32.9603 16.28 34.4803 15.2 36.1203 13.48C37.4003 12.16 38.4403 10.04 38.4403 8.2C38.4403 7.04 38.0003 6.08 37.0003 5.56C36.2003 5.2 35.1603 5 34.1203 5C33.3203 5 32.4803 5.12 31.7603 5.36C32.0403 6.24 32.1203 7.4 32.1203 8.88C32.1203 9.44 32.1203 10.04 32.0803 10.64C32.0003 12.4 31.8803 14.4 31.6403 16.92ZM70.4906 24.28C71.1706 24.28 71.9706 24.96 71.9706 26.56C71.9706 28.04 70.1706 30.2 68.6106 31.12C68.0106 31.44 67.2506 31.64 66.3706 31.64C65.6906 31.64 64.9706 31.56 64.2506 31.28C62.8906 30.76 61.5706 29.76 60.7306 28C59.9706 26.48 59.2506 22.76 58.6906 18.76C56.8106 18.76 54.9706 18.8 53.3306 18.92C52.6106 22.04 51.8506 25.16 51.0106 27.76C49.8906 31.24 48.6906 33.72 47.3706 33.96C47.2106 34 47.0906 34 46.9306 34C45.1706 34 43.8106 32.24 43.0106 29.88C42.4106 28.24 42.1306 26.32 42.1306 24.52C42.1306 22.72 42.4106 21 43.0906 19.76C44.3306 17.48 46.6906 16.52 50.0506 16.08L51.6906 9.52C52.7306 5.4 53.7306 2.28 55.5706 1.28C56.3306 0.879998 57.3306 0.679998 58.4106 0.679998C59.8506 0.679998 61.3706 1.08 62.2506 2.04C62.4906 2.6 62.9306 6.08 63.4906 10.28C63.7306 12 63.9306 13.84 64.1706 15.64C64.8506 15.64 65.4506 15.68 66.0106 15.68C67.6106 15.72 68.6506 15.76 68.6506 15.76C68.6506 15.76 68.6906 15.96 68.6906 16.24C68.6906 16.72 68.5706 17.44 68.0106 18C67.5306 18.48 66.6906 18.88 65.2506 18.88H64.6106C65.2106 23.2 65.8906 26.84 66.4506 27.52C66.7306 27.88 67.0506 28 67.3706 28C67.9706 28 68.6106 27.56 69.1706 26.92C69.8906 26.12 70.4506 25 70.4906 24.28ZM54.0506 15.76C55.3706 15.72 56.7706 15.68 58.2506 15.68C58.0106 13.96 57.8106 12.24 57.6506 10.72C57.2906 7.36 57.0906 4.92 57.0906 4.92C56.5306 5.68 55.9706 7.44 55.1706 11C54.6506 13.32 54.2906 14.68 54.0506 15.76ZM46.4106 28.36C46.6506 28.16 47.0906 26.88 47.6506 24.96C48.0906 23.48 48.6106 21.6 49.1706 19.56C48.0106 19.84 47.0506 20.24 46.4906 20.8C45.8106 21.48 45.3706 23 45.2506 24.52C45.2106 24.88 45.2106 25.2 45.2106 25.52C45.2106 27.12 45.5306 28.48 46.0906 28.48C46.1706 28.48 46.2906 28.44 46.4106 28.36ZM106.362 24.44C107.242 24.44 107.922 25.28 107.922 26.32C107.922 28.84 105.282 31.72 102.602 31.72C100.762 31.72 98.4422 30.6 97.5222 27.72C97.1222 26.48 97.0022 24.4 97.0022 22.04C97.0022 21.12 97.2822 13.4 97.2822 11.84C97.2822 11.48 97.1622 7.4 96.4822 7.4C95.6822 7.4 94.2422 12 93.0022 17.28C91.7222 22.56 90.6822 28.52 90.6822 31.08C90.6822 31.4 90.6822 31.68 90.7222 31.88C90.4422 31.96 90.1622 31.96 89.8422 31.96C88.8022 31.96 87.6422 31.64 86.6822 30.96C85.5622 30.2 84.6822 28.96 84.4022 27.28C84.2022 26.16 84.2022 23.52 84.2022 17.4C84.2022 12.08 84.1222 6.08 83.0422 6.08C82.1222 6.08 80.5222 11.96 79.1222 18.24C77.6822 24.72 76.4422 31.72 76.4422 33.44C76.2822 33.48 76.0822 33.52 75.8422 33.52C75.0022 33.52 73.8422 33.12 72.7622 32.36C71.6822 31.6 70.7222 30.44 70.3222 28.88C70.0822 27.96 70.0022 26.48 70.0022 24.72C70.0022 22.56 70.1222 20 70.2822 17.48C70.4822 14.16 70.7222 10.92 70.7222 8.88C70.7222 7.64 70.6422 6.84 70.4022 6.68C70.2422 6.56 70.0822 6.52 69.9222 6.52C68.9222 6.52 67.6822 8.08 65.8022 8.6C65.4822 8.68 65.2022 8.72 64.9622 8.72C63.9222 8.72 63.4422 8.04 63.1222 7.24C63.6422 6.2 66.4422 3.6 68.8822 3.08C69.1622 3.04 69.4422 3 69.7222 3C72.1222 3 75.2022 4.92 75.6422 8.12C75.7622 8.92 75.8022 10.04 75.8022 11.28C75.8022 15.48 75.3622 20.2 75.2022 22.36C75.6422 19.6 76.2022 15.64 77.3622 10.8C78.2422 7.12 79.3622 3.68 80.6422 2.52C81.1222 2.08 81.7222 1.88 82.3622 1.88C83.2022 1.88 84.1222 2.2 85.0022 2.76C86.6422 3.8 88.1622 5.64 88.6022 7.64C89.4422 11.24 89.5622 19.4 89.5622 19.52C89.6822 18.84 92.4022 5.48 94.6022 3.92C95.2422 3.48 95.8422 3.32 96.4822 3.32C97.6422 3.32 98.8022 3.96 99.7622 5C101.082 6.4 102.042 8.4 102.282 10.2C102.362 10.72 102.402 11.48 102.402 12.36C102.402 14.08 102.282 16.28 102.202 18.52C102.122 20.24 102.082 21.96 102.082 23.44C102.082 25.84 102.242 27.64 102.722 28C102.922 28.12 103.122 28.2 103.322 28.2C104.682 28.2 106.362 25.64 106.362 24.44ZM109.285 14.16C107.805 12.8 106.205 10.4 106.205 7.6C106.205 6.88 106.325 6.08 106.525 5.24C107.325 2.2 110.045 0.599999 113.005 0.159998C113.525 0.079999 114.085 0.0399995 114.605 0.0399995C117.485 0.0399995 120.245 1.12 121.365 3.08C121.925 4.08 122.205 5.04 122.205 5.88C122.205 7.04 121.725 8 120.925 8.64C120.245 9.2 119.325 9.52 118.285 9.52C117.845 9.52 117.365 9.44 116.885 9.32C117.005 8.76 117.085 8 117.085 7.2C117.085 5.32 116.605 3.12 114.605 3.12C112.565 3.12 111.765 4.84 111.765 6.88C111.765 7.52 111.845 8.16 111.965 8.8C112.365 10.6 112.805 11.52 113.485 12.56C114.245 12.4 115.125 12.28 116.205 12.28C117.005 12.28 117.925 12.36 118.965 12.52C120.885 12.84 121.845 14.36 121.845 15.88C121.845 17.08 121.205 18.2 119.885 18.72C119.365 18.92 118.805 19.04 118.205 19.04C116.565 19.04 114.765 18.24 112.805 16.96C111.085 18.56 109.925 20.84 109.925 23.4C109.925 24.96 110.325 26.68 111.165 28C112.125 29.52 113.605 30.6 115.685 30.6C118.245 30.6 120.445 28.92 121.445 26.4C122.045 24.96 122.245 23.4 122.245 22.32C122.245 21.72 122.165 21.24 122.085 21C122.085 21 122.525 20.84 123.125 20.84C124.005 20.84 125.165 21.2 125.765 23C125.885 23.4 125.965 23.92 125.965 24.48C125.965 26.04 125.405 28.12 123.845 29.88C121.525 32.6 117.645 33.64 113.925 33.64C110.205 33.64 107.445 32.36 105.645 30.4C104.005 28.64 103.165 26.32 103.165 24C103.165 20.68 105.005 16.28 109.285 14.16ZM117.685 15.08C116.805 15.08 116.285 15.12 115.805 15.28C116.405 15.8 117.205 16.48 118.125 16.48C118.525 16.48 118.845 16.28 118.845 15.92C118.845 15.56 118.285 15.08 117.685 15.08ZM137.95 13.04C138.11 12.32 138.27 10.72 138.27 9C138.27 6.4 137.87 3.6 136.19 3.6C133.83 3.6 130.87 8.64 130.87 16.24C130.87 24.64 133.39 30.16 136.87 30.16C140.03 30.16 142.11 25.92 142.11 22C142.11 21.36 142.03 20.68 141.91 20.08C142.23 19.92 142.67 19.8 143.19 19.8C144.03 19.8 145.03 20.16 145.47 21.44C145.67 22 145.83 22.88 145.83 23.88C145.83 26.16 145.03 29.2 142.15 31.4C140.63 32.56 138.35 33.24 135.99 33.24C133.39 33.24 130.67 32.4 128.75 30.6C126.07 28.08 124.67 23.12 124.67 17.88C124.67 12.84 125.95 7.52 128.63 3.72C130.35 1.28 133.15 0.279999 135.79 0.279999C138.59 0.279999 141.27 1.36 142.47 3.04C143.75 4.8 144.31 6.92 144.31 8.8C144.31 10.12 144.03 11.36 143.55 12.24C142.95 13.36 141.63 13.92 140.35 13.92C139.43 13.92 138.55 13.64 137.95 13.04ZM153.022 28.4C153.022 28.4 152.302 28.08 151.462 27.76C150.822 27.52 150.102 27.32 149.622 27.32C149.382 27.32 149.022 27.4 149.022 27.76C149.022 28.64 150.782 29.96 151.702 29.96C152.782 29.96 152.982 28.36 153.022 28.4ZM163.902 14.52C162.142 15.08 160.302 15.36 158.502 15.4C158.542 18.76 158.902 22.08 158.902 24.64C158.902 25.12 158.902 25.6 158.862 26.04C160.582 26.72 162.542 27.28 164.302 27.52C164.942 27.6 165.582 27.68 166.182 27.68C167.302 27.68 168.262 27.48 168.862 27C168.982 27.44 169.062 27.84 169.062 28.24C169.062 29.28 168.622 30.24 167.822 30.92C167.102 31.56 166.062 31.88 164.782 31.88C162.382 31.88 160.422 30.76 158.062 29.8C157.582 31.52 154.982 32.72 152.382 32.72C150.702 32.72 149.062 32.24 147.862 31.12C146.542 29.88 146.022 28.4 146.022 27.12C146.022 25.44 146.942 23.88 148.422 23.88C150.782 23.88 152.422 24.72 153.422 24.84C153.422 22.48 153.102 19.24 153.062 15.08C152.062 14.92 151.182 14.72 150.422 14.48C148.782 13.96 147.742 13.2 147.182 12.36C146.742 11.72 146.582 11.04 146.582 10.44C146.582 9.6 146.902 8.92 147.302 8.64C147.822 9.08 148.822 9.64 150.102 10.16C150.942 10.52 151.942 10.84 152.982 11.12C152.942 10.64 152.942 10.12 152.942 9.56C152.942 7 153.302 3.84 154.622 2.28C155.862 0.879998 157.542 0.279999 159.302 0.279999C160.422 0.279999 161.582 0.519998 162.702 0.919998C164.902 1.72 166.862 3.16 167.782 4.8C168.382 5.8 168.702 7 168.702 8.2C168.702 9.2 168.462 10.24 167.982 11.16C167.262 12.64 165.902 13.88 163.902 14.52ZM158.542 11.88C158.822 11.92 159.142 11.92 159.502 11.92C160.502 11.92 161.702 11.76 162.542 11.16C163.662 10.36 164.302 9.08 164.302 7.56C164.302 5.92 163.342 4.04 161.622 4.04C160.222 4.04 159.342 5.48 158.902 7.56C158.622 8.8 158.542 10.28 158.542 11.88ZM171.1 29.84C168.9 27.12 167.82 22.2 167.82 17.36C167.82 13.08 168.66 8.88 170.34 6.4C171.14 3.84 173.18 1.92 175.62 0.999999C176.62 0.639999 177.66 0.439999 178.74 0.439999C181.02 0.439999 183.5 1.32 185.78 3.52C188.7 6.36 189.94 10.92 189.94 15.56C189.94 22.56 188.18 28.52 185.58 31C183.74 32.8 181.34 33.72 178.9 33.72C176.06 33.72 173.22 32.48 171.1 29.84ZM174.38 16.2C174.3 16.44 174.3 16.8 174.3 17.28C174.3 19.12 174.7 22.16 174.9 22.92C175.38 24.96 177.06 30.6 179.86 30.6C182.86 30.6 186.02 24.04 186.02 16.56C186.02 7.2 182.02 4.04 179.62 4.04C177.18 4.04 176.46 7.24 176.46 9.32C176.46 11.4 177.06 13.4 178.1 13.72C178.1 14.76 177.58 15.52 176.78 15.96C176.5 16.12 175.66 16.24 174.98 16.24C174.74 16.24 174.54 16.24 174.38 16.2ZM193.391 3.72C193.231 3.56 193.071 3.48 192.871 3.48C192.271 3.48 191.511 4.2 190.271 5.04C189.791 5.36 189.311 5.52 188.911 5.52C187.951 5.52 187.271 4.76 187.271 3.8C190.191 1.52 190.631 0.4 193.271 0.4C195.431 0.4 198.511 2.2 198.511 5.24C198.511 6.8 198.351 11.88 197.951 14.96C197.671 18.76 197.351 22.68 197.351 25.12C197.351 25.48 197.391 25.84 197.391 26.12C197.431 27.44 198.071 27.88 198.591 27.88C199.311 27.88 200.031 26.48 200.431 25.64C201.391 23.64 202.391 20.56 203.351 17.2C204.711 12.32 205.911 7 206.471 4.16C206.671 3.04 207.231 2.6 207.951 2.6C209.591 2.6 211.871 4.92 211.871 6.28C211.871 7.84 211.511 11.8 211.191 15.92C210.991 18.8 210.791 21.76 210.791 24C210.791 26.04 210.951 27.52 211.351 27.8C211.511 27.92 211.671 28 211.871 28C213.151 28 214.671 25.24 214.831 24.44C215.271 24.56 216.311 24.88 216.311 26.2C216.311 28.08 214.631 30.64 212.231 31.48C211.791 31.64 211.311 31.72 210.831 31.72C208.511 31.72 206.271 29.84 205.951 26.8C205.831 25.8 205.791 24.72 205.791 23.6C205.791 20.64 206.111 17.48 206.271 16C205.831 18.8 204.031 27.96 199.791 32.04C199.231 32.6 198.391 32.84 197.511 32.84C195.711 32.84 193.631 31.76 192.951 29.64C192.551 28.4 192.391 26.52 192.391 24.32C192.391 21.64 192.631 18.48 192.871 15.44C193.231 11.28 193.631 7.32 193.631 5.24C193.631 4.4 193.551 3.84 193.391 3.72ZM216.444 15.4L216.884 6.64C215.124 7.16 213.844 7.8 213.404 8.28C212.284 8.16 211.244 7.04 211.244 5.68C211.244 5 211.524 4.24 212.204 3.52C213.524 2.12 216.724 1.08 220.404 1.08C224.084 1.08 228.044 2.12 231.044 4.8C235.084 8.4 237.044 13.6 237.044 18.64C237.044 23.24 235.564 27.08 232.964 29.84C230.084 32.88 225.684 34.4 222.324 34.4C221.364 34.4 220.524 34.28 219.804 34.04C218.124 33.48 216.204 32 215.524 29.96C215.364 29.44 215.284 28.92 215.284 28.44C215.284 27.32 215.644 26.28 216.244 25.32C216.244 24.72 216.204 24.04 216.204 23.36C216.204 20.92 216.324 18.16 216.444 15.4ZM226.684 22.56C224.684 23 223.844 23.88 222.524 25.44C221.804 26.32 221.364 27.64 221.364 28.72C221.364 29.48 221.684 30.72 222.764 30.72C223.644 30.72 224.964 30.12 226.324 29.12C227.764 28.04 229.244 26.36 230.324 24.2C231.564 21.76 232.324 18.6 232.324 15.12C232.324 12.24 231.444 9.56 229.524 7.72C227.924 6.24 225.564 5.68 223.124 5.68C222.764 5.68 222.404 5.72 221.604 5.76C222.044 6.92 222.124 9.88 222.124 13.12C222.124 16.08 222.084 19.96 221.924 20.92C222.724 20.64 223.564 20.48 224.444 20.48C225.404 20.48 226.804 20.72 226.804 22C226.804 22.2 226.764 22.36 226.684 22.56Z" fill="white"/>
</svg>
