<svg width="26" height="26" viewBox="0 0 26 26" fill="none" xmlns="http://www.w3.org/2000/svg">
<path fill-rule="evenodd" clip-rule="evenodd" d="M13 0C5.8203 0 0 5.8203 0 13C0 20.1797 5.8203 26 13 26C20.1797 26 26 20.1797 26 13C26 5.8203 20.1797 0 13 0ZM10.9216 6.01399C10.0058 5.39638 8.76275 5.63808 8.14513 6.55385C7.52752 7.46962 7.76923 8.71266 8.685 9.33028L15.0968 13.6545L8.85997 16.9905C7.88598 17.5115 7.51874 18.7234 8.03971 19.6974C8.56068 20.6714 9.77259 21.0386 10.7466 20.5177L16.9834 17.1817C19.6404 15.7605 19.8316 12.0231 17.3334 10.3382L10.9216 6.01399Z" fill="white"/>
</svg>
