<svg width="24" height="24" viewBox="0 0 24 24" fill="none" xmlns="http://www.w3.org/2000/svg">
<rect x="1" y="1" width="22" height="22" rx="3" stroke="white" stroke-width="2"/>
<path d="M17.3478 16H6.92631C5.93583 16 5.01258 15.499 4.47277 14.6685L4.21456 14.2713C4.07453 14.0558 4 13.8044 4 13.5475C4 12.8976 4.47037 12.3431 5.1116 12.2372L5.28295 12.2089C5.68876 12.1418 6.05059 11.9145 6.28711 11.578L6.34175 11.5003C6.74615 10.9249 7.45434 10.6457 8.14258 10.7902L8.23476 10.8096C8.95863 10.9616 9.70498 10.6802 10.1483 10.0882L10.2236 9.98763C10.3924 9.76228 10.6047 9.57318 10.8481 9.43157L10.9324 9.38247C11.2226 9.21358 11.543 9.10297 11.8756 9.05684L11.9224 9.05034C12.1633 9.01693 12.4076 9.01543 12.6489 9.04588L12.7853 9.06309C13.1168 9.10493 13.4343 9.22252 13.7131 9.40675C14.0622 9.63747 14.3386 9.96633 14.507 10.3494C14.8936 11.2289 15.807 11.7635 16.7624 11.6631L17.1955 11.6176C17.3238 11.6041 17.4532 11.6022 17.5819 11.6119C18.2514 11.6626 18.8618 12.0283 19.2263 12.5922C19.694 13.3158 19.6944 14.2537 19.2208 14.9735L19.2037 14.9995C18.7928 15.624 18.0954 16 17.3478 16Z" stroke="white" stroke-width="2"/>
<path d="M19.4413 4.76538L19.3114 4.65617C18.8203 4.2433 18.163 4.08684 17.5386 4.2342C16.2507 4.53816 15.5932 5.97328 16.204 7.14717L16.2824 7.29772C16.7816 8.25723 17.937 8.66848 18.9303 8.24023C20.3399 7.63244 20.6163 5.75326 19.4413 4.76538Z" stroke="white" stroke-width="2"/>
</svg>
