<svg width="66" height="66" viewBox="0 0 66 66" fill="none" xmlns="http://www.w3.org/2000/svg">
<rect x="3" y="3" width="60" height="60" rx="14" stroke="white" stroke-width="6"/>
<path d="M46.8718 43H19.8509C17.1513 43 14.641 41.6129 13.2042 39.3274L12.5592 38.3014C12.1938 37.7201 12 37.0475 12 36.361C12 34.5843 13.2807 33.0663 15.032 32.7672L15.3457 32.7136C16.4238 32.5294 17.3805 31.9142 17.9954 31.0096L18.1402 30.7966C19.2016 29.2352 21.105 28.475 22.95 28.8757L23.1152 28.9116C25.0084 29.3227 26.9655 28.5746 28.1018 27.0055L28.348 26.6656C28.7837 26.0639 29.3363 25.5564 29.9728 25.1734L30.1843 25.0462C30.9544 24.5827 31.8097 24.2781 32.6994 24.1505L32.7914 24.1374C33.4269 24.0462 34.0718 24.0421 34.7084 24.1252L35.0249 24.1665C35.9186 24.2831 36.7721 24.6089 37.5162 25.1173C38.4203 25.7351 39.134 26.6118 39.5625 27.6195C40.5807 30.0142 43.061 31.4936 45.648 31.2125L46.6306 31.1056C46.9725 31.0685 47.3172 31.0633 47.6601 31.0901C49.4099 31.227 50.991 32.1857 51.9213 33.6739L52.0229 33.8363C53.2309 35.7687 53.2211 38.2233 51.9977 40.146L51.9587 40.2073C50.852 41.9467 48.9334 43 46.8718 43Z" stroke="white" stroke-width="6"/>
<path d="M53.4058 14.0614L52.9188 13.6314C51.7616 12.6098 50.1764 12.2216 48.6781 12.5929C45.7625 13.3154 44.2638 16.5501 45.5975 19.2415L45.886 19.8236C47.0406 22.1534 49.8332 23.15 52.202 22.0776C55.3923 20.6333 56.0312 16.3791 53.4058 14.0614Z" stroke="white" stroke-width="4"/>
</svg>
