<svg width="24" height="24" viewBox="0 0 24 24" fill="none" xmlns="http://www.w3.org/2000/svg">
<g clip-path="url(#clip0_6_87)">
<path d="M14.8078 2.93595C18.0861 6.21428 18.0861 11.5295 14.8078 14.8078C11.5295 18.0862 6.21427 18.0862 2.93594 14.8078C-0.342389 11.5295 -0.342389 6.21428 2.93594 2.93595C6.21427 -0.342382 11.5295 -0.342382 14.8078 2.93595ZM4.93219 12.8116C7.10802 14.9874 10.6357 14.9874 12.8116 12.8116C14.9874 10.6357 14.9874 7.10803 12.8116 4.93219C10.6357 2.75636 7.10802 2.75636 4.93219 4.93219C2.75635 7.10803 2.75635 10.6357 4.93219 12.8116Z" fill="white"/>
<rect x="21.0982" y="23.6791" width="12.8668" height="3.64986" rx="1.82493" transform="rotate(-135 21.0982 23.6791)" fill="white"/>
</g>
<defs>
<clipPath id="clip0_6_87">
<rect width="24" height="24" fill="white"/>
</clipPath>
</defs>
</svg>
